<svg xmlns="http://www.w3.org/2000/svg" viewBox="0 0 560 300" width="560" height="300" font-family="Helvetica, Arial, sans-serif" font-size="14">
<rect width="560" height="300" fill="white"/>
<rect x="10" y="10" width="540" height="280" rx="16" fill="#f2f2f2" stroke="#ccc" stroke-width="1.5"/>
<ellipse cx="250" cy="150" rx="210" ry="120" fill="#f77f00" fill-opacity="0.15" stroke="#f77f00" stroke-width="2" stroke-dasharray="7 5"/>
<ellipse cx="250" cy="150" rx="120" ry="66" fill="#2a9d8f" fill-opacity="0.2" stroke="#2a9d8f" stroke-width="2"/>
<circle cx="180.0" cy="130.0" r="6" fill="#2a9d8f" stroke="#2a9d8f" stroke-width="2"/>
<circle cx="310.0" cy="125.0" r="6" fill="#2a9d8f" stroke="#2a9d8f" stroke-width="2"/>
<circle cx="210.0" cy="182.0" r="6" fill="#2a9d8f" stroke="#2a9d8f" stroke-width="2"/>
<circle cx="325.0" cy="172.0" r="6" fill="#2a9d8f" stroke="#2a9d8f" stroke-width="2"/>
<circle cx="265.0" cy="190.0" r="6" fill="#2a9d8f" stroke="#2a9d8f" stroke-width="2"/>
<circle cx="402.0" cy="186.6" r="6" fill="white" stroke="#f77f00" stroke-width="2"/>
<circle cx="302.0" cy="239.2" r="6" fill="white" stroke="#f77f00" stroke-width="2"/>
<circle cx="166.7" cy="231.1" r="6" fill="white" stroke="#f77f00" stroke-width="2"/>
<circle cx="89.8" cy="172.5" r="6" fill="white" stroke="#f77f00" stroke-width="2"/>
<circle cx="110.1" cy="100.2" r="6" fill="white" stroke="#f77f00" stroke-width="2"/>
<circle cx="155.2" cy="73.1" r="6" fill="white" stroke="#f77f00" stroke-width="2"/>
<circle cx="366.9" cy="83.7" r="6" fill="white" stroke="#f77f00" stroke-width="2"/>
<circle cx="470.0" cy="70.0" r="6" fill="white" stroke="#aaa" stroke-width="2"/>
<circle cx="500.0" cy="210.0" r="6" fill="white" stroke="#aaa" stroke-width="2"/>
<circle cx="60.0" cy="40.0" r="6" fill="white" stroke="#aaa" stroke-width="2"/>
<circle cx="40.0" cy="260.0" r="6" fill="white" stroke="#aaa" stroke-width="2"/>
<circle cx="300.0" cy="278.0" r="6" fill="white" stroke="#aaa" stroke-width="2"/>
<circle cx="520.0" cy="140.0" r="6" fill="white" stroke="#aaa" stroke-width="2"/>
<circle cx="250" cy="150" r="6" fill="#222"/>
<svg xmlns:xlink="http://www.w3.org/1999/xlink" x="260.0" y="154.0" width="46.1" height="24.5" viewBox="0 0 34.56 18.365" xmlns="http://www.w3.org/2000/svg" version="1.1">
 <metadata>
  <rdf:RDF xmlns:dc="http://purl.org/dc/elements/1.1/" xmlns:cc="http://creativecommons.org/ns#" xmlns:rdf="http://www.w3.org/1999/02/22-rdf-syntax-ns#">
   <cc:Work>
    <dc:type rdf:resource="http://purl.org/dc/dcmitype/StillImage"/>
    <dc:date>2026-10-07T22:37:06.281930</dc:date>
    <dc:format>image/svg+xml</dc:format>
    <dc:creator>
     <cc:Agent>
      <dc:title>Matplotlib v3.10.7, https://matplotlib.org/</dc:title>
     </cc:Agent>
    </dc:creator>
   </cc:Work>
  </rdf:RDF>
 </metadata>
 <defs>
  <style type="text/css">*{stroke-linejoin: round; stroke-linecap: butt}</style>
 </defs>
 <g id="figure_1">
  <g id="patch_1">
   <path d="M 0 18.365 
L 34.56 18.365 
L 34.56 0 
L 0 0 
L 0 18.365 
z
" style="fill: none"/>
  </g>
  <g id="text_1">
   <!-- $s_{\mathrm{start}}$ -->
   <g style="fill: #222222" transform="translate(1.44 13.5975) scale(0.16 -0.16)">
    <defs>
     <path id="Cmmi10-73" d="M 556 391 
Q 728 97 1247 97 
Q 1472 97 1675 173 
Q 1878 250 2011 403 
Q 2144 556 2144 775 
Q 2144 941 2025 1047 
Q 1906 1153 1734 1191 
L 1388 1259 
Q 1150 1319 997 1481 
Q 844 1644 844 1875 
Q 844 2159 998 2378 
Q 1153 2597 1406 2712 
Q 1659 2828 1931 2828 
Q 2222 2828 2451 2689 
Q 2681 2550 2681 2278 
Q 2681 2131 2598 2018 
Q 2516 1906 2369 1906 
Q 2284 1906 2223 1961 
Q 2163 2016 2163 2100 
Q 2163 2175 2205 2245 
Q 2247 2316 2317 2358 
Q 2388 2400 2463 2400 
Q 2406 2538 2251 2600 
Q 2097 2663 1919 2663 
Q 1756 2663 1593 2597 
Q 1431 2531 1332 2404 
Q 1234 2278 1234 2106 
Q 1234 1991 1315 1903 
Q 1397 1816 1516 1778 
L 1888 1703 
Q 2066 1666 2214 1570 
Q 2363 1475 2448 1329 
Q 2534 1184 2534 997 
Q 2534 759 2401 528 
Q 2269 297 2075 159 
Q 1734 -72 1241 -72 
Q 900 -72 615 84 
Q 331 241 331 550 
Q 331 725 432 854 
Q 534 984 709 984 
Q 813 984 883 921 
Q 953 859 953 756 
Q 953 609 843 500 
Q 734 391 588 391 
L 556 391 
z
" transform="scale(0.015625)"/>
     <path id="Cmr10-73" d="M 213 -19 
L 213 1025 
Q 213 1075 269 1075 
L 347 1075 
Q 384 1075 397 1025 
Q 575 97 1259 97 
Q 1563 97 1767 234 
Q 1972 372 1972 659 
Q 1972 866 1812 1011 
Q 1653 1156 1434 1209 
L 1006 1294 
Q 791 1341 614 1437 
Q 438 1534 325 1695 
Q 213 1856 213 2069 
Q 213 2350 361 2529 
Q 509 2709 746 2789 
Q 984 2869 1259 2869 
Q 1588 2869 1831 2694 
L 2016 2853 
Q 2016 2869 2047 2869 
L 2094 2869 
Q 2113 2869 2128 2851 
Q 2144 2834 2144 2816 
L 2144 1978 
Q 2144 1919 2094 1919 
L 2016 1919 
Q 1959 1919 1959 1978 
Q 1959 2313 1773 2516 
Q 1588 2719 1253 2719 
Q 966 2719 755 2612 
Q 544 2506 544 2247 
Q 544 2069 695 1955 
Q 847 1841 1050 1791 
L 1484 1709 
Q 1703 1659 1892 1540 
Q 2081 1422 2192 1240 
Q 2303 1059 2303 831 
Q 2303 600 2223 429 
Q 2144 259 2001 146 
Q 1859 34 1665 -19 
Q 1472 -72 1259 -72 
Q 859 -72 575 197 
L 341 -56 
Q 341 -72 306 -72 
L 269 -72 
Q 213 -72 213 -19 
z
" transform="scale(0.015625)"/>
     <path id="Cmr10-74" d="M 653 769 
L 653 2534 
L 122 2534 
L 122 2700 
Q 541 2700 737 3090 
Q 934 3481 934 3938 
L 1119 3938 
L 1119 2759 
L 2022 2759 
L 2022 2534 
L 1119 2534 
L 1119 781 
Q 1119 516 1208 316 
Q 1297 116 1528 116 
Q 1747 116 1844 327 
Q 1941 538 1941 781 
L 1941 1159 
L 2125 1159 
L 2125 769 
Q 2125 569 2051 373 
Q 1978 178 1834 53 
Q 1691 -72 1484 -72 
Q 1100 -72 876 158 
Q 653 388 653 769 
z
" transform="scale(0.015625)"/>
     <path id="Cmr10-61" d="M 256 628 
Q 256 1009 556 1248 
Q 856 1488 1276 1586 
Q 1697 1684 2075 1684 
L 2075 1947 
Q 2075 2131 1994 2304 
Q 1913 2478 1759 2589 
Q 1606 2700 1422 2700 
Q 997 2700 775 2509 
Q 897 2509 976 2417 
Q 1056 2325 1056 2203 
Q 1056 2075 965 1984 
Q 875 1894 750 1894 
Q 622 1894 531 1984 
Q 441 2075 441 2203 
Q 441 2541 747 2705 
Q 1053 2869 1422 2869 
Q 1681 2869 1943 2758 
Q 2206 2647 2373 2440 
Q 2541 2234 2541 1959 
L 2541 519 
Q 2541 394 2594 289 
Q 2647 184 2759 184 
Q 2866 184 2917 290 
Q 2969 397 2969 519 
L 2969 928 
L 3156 928 
L 3156 519 
Q 3156 375 3081 245 
Q 3006 116 2879 39 
Q 2753 -38 2606 -38 
Q 2419 -38 2283 107 
Q 2147 253 2131 453 
Q 2013 213 1781 70 
Q 1550 -72 1288 -72 
Q 1044 -72 808 0 
Q 572 72 414 226 
Q 256 381 256 628 
z
M 775 628 
Q 775 403 940 250 
Q 1106 97 1331 97 
Q 1538 97 1706 200 
Q 1875 303 1975 481 
Q 2075 659 2075 856 
L 2075 1522 
Q 1784 1522 1479 1426 
Q 1175 1331 975 1128 
Q 775 925 775 628 
z
" transform="scale(0.015625)"/>
     <path id="Cmr10-72" d="M 166 0 
L 166 225 
Q 384 225 525 259 
Q 666 294 666 428 
L 666 2175 
Q 666 2347 614 2423 
Q 563 2500 466 2517 
Q 369 2534 166 2534 
L 166 2759 
L 1081 2828 
L 1081 2203 
Q 1184 2481 1375 2654 
Q 1566 2828 1838 2828 
Q 2028 2828 2178 2715 
Q 2328 2603 2328 2419 
Q 2328 2303 2245 2217 
Q 2163 2131 2041 2131 
Q 1922 2131 1837 2215 
Q 1753 2300 1753 2419 
Q 1753 2591 1875 2663 
L 1838 2663 
Q 1578 2663 1414 2475 
Q 1250 2288 1181 2009 
Q 1113 1731 1113 1478 
L 1113 428 
Q 1113 225 1734 225 
L 1734 0 
L 166 0 
z
" transform="scale(0.015625)"/>
    </defs>
    <use xlink:href="#Cmmi10-73" transform="translate(0 0.8125)"/>
    <use xlink:href="#Cmr10-73" transform="translate(46.777344 -16.19375) scale(0.7)"/>
    <use xlink:href="#Cmr10-74" transform="translate(74.360352 -16.19375) scale(0.7)"/>
    <use xlink:href="#Cmr10-61" transform="translate(101.533203 -16.19375) scale(0.7)"/>
    <use xlink:href="#Cmr10-72" transform="translate(136.533203 -16.19375) scale(0.7)"/>
    <use xlink:href="#Cmr10-74" transform="translate(163.911133 -16.19375) scale(0.7)"/>
   </g>
  </g>
 </g>
</svg>

<text x="250" y="114" text-anchor="middle" fill="#2a9d8f" font-size="17" font-weight="bold">Explored</text>
<text x="250" y="62" text-anchor="middle" fill="#f77f00" font-size="17" font-weight="bold">Frontier</text>
<text x="530" y="270" text-anchor="end" fill="#888" font-size="17" font-weight="bold">Unexplored</text>
</svg>
